<?xml version="1.0" encoding="UTF-8" standalone="no"?>
<svg
   width="34mm"
   height="130.49999999999997mm"
   viewBox="-17 -65.24999999999999 34 130.49999999999997"
   version="1.1"
   id="svg1"
   sodipodi:docname="Side Panel - L.svg"
   inkscape:version="1.4.2 (f4327f4, 2025-05-13)"
   xmlns:inkscape="http://www.inkscape.org/namespaces/inkscape"
   xmlns:sodipodi="http://sodipodi.sourceforge.net/DTD/sodipodi-0.dtd"
   xmlns="http://www.w3.org/2000/svg"
   xmlns:svg="http://www.w3.org/2000/svg">
  <defs
     id="defs1" />
  <sodipodi:namedview
     id="namedview1"
     pagecolor="#ffffff"
     bordercolor="#000000"
     borderopacity="0.25"
     inkscape:showpageshadow="2"
     inkscape:pageopacity="0.0"
     inkscape:pagecheckerboard="0"
     inkscape:deskcolor="#d1d1d1"
     inkscape:document-units="mm"
     inkscape:zoom="2.3660441"
     inkscape:cx="64.453576"
     inkscape:cy="246.61417"
     inkscape:window-width="3440"
     inkscape:window-height="1369"
     inkscape:window-x="-8"
     inkscape:window-y="-8"
     inkscape:window-maximized="1"
     inkscape:current-layer="svg1" />
  <title
     id="title1">svgOutput</title>
  <desc
     id="desc1">made with tinkercad</desc>
  <path
     d="M -16 -64.24999999999999 L -8.192000389099121 -64.24999999999999 L -7.208864212036133 -64.24999999999999 L -6.420217514038086 -64.24999999999999 L -5.698550701141357 -64.24999999999999 L 0 -64.24999999999999 L 3 -64.24999999999999 L 7.5 -64.24999999999999 L 16 -64.24999999999999 L 16 -32.76800155639648 L 16 -16.38400077819824 L 16 -5.616666793823241 L 16 1.1102230246251565e-16 L 16 16.38400077819824 L 16 19.23231506347656 L 16 32.52368545532226 L 16 32.76800155639648 L 16 34.84331512451171 L 16 40.039314270019524 L 16 64.24999999999999 L 0 64.24999999999999 L -4.901449203491211 64.24999999999999 L -8.192000389099121 64.24999999999999 L -8.804965019226074 64.24999999999999 L -9.791135787963867 64.24999999999999 L -10.579782485961914 64.24999999999999 L -11.301448822021484 64.24999999999999 L -12.098550796508789 64.24999999999999 L -13.051284790039062 64.24999999999999 L -14.413492202758789 64.24999999999999 L -16 64.24999999999999 L -16 63.793003082275376 L -16 61.96477890014647 L -16 60.43381500244139 L -16 59.65000152587889 L -16 49.15200042724608 L -16 41.19398117065429 L -16 32.76800155639648 L -16 19.24501800537109 L -16 16.38400077819824 L -16 1.9240173101425166 L -16 1.1102230246251565e-16 L -16 -5.616666793823241 L -16 -16.38400077819824 L -16 -21.205667495727536 L -16 -32.76800155639648 L -16 -36.816665649414055 L -16 -49.15200042724608 L -16 -51.091484069824205 L -16 -56.19065093994139 L -16 -58.706996917724595 L -16 -60.5352210998535 L -16 -62.06618499755858 L -16 -62.84999847412108 L -16 -64.24999999999999 M 4.5 -43.456001281738274 L 3 -42.59000015258788 L 1.5 -41.72399902343749 L 1.5 -38.259998321533196 L 3 -37.39400100708007 L 4.5 -36.52799987792968 L 7.5 -38.259998321533196 L 7.5 -41.72399902343749 L 4.5 -43.456001281738274 M -5.355000019073486 -60.835998535156236 L -5.300000190734863 -61.249999999999986 L -5.355000019073486 -61.664001464843736 L -5.513999938964844 -62.04999923706053 L -5.769000053405762 -62.381000518798814 L -6.099999904632568 -62.63600158691405 L -6.486000061035156 -62.7949981689453 L -6.900000095367432 -62.84999847412108 L -8.192000389099121 -62.84999847412108 L -10.100000381469727 -62.84999847412108 L -10.513999938964844 -62.7949981689453 L -10.899999618530273 -62.63600158691405 L -11.230999946594238 -62.381000518798814 L -11.486000061035156 -62.04999923706053 L -11.645000457763672 -61.664001464843736 L -11.699999809265137 -61.249999999999986 L -11.645000457763672 -60.835998535156236 L -11.486000061035156 -60.45000076293944 L -11.230999946594238 -60.11899948120116 L -10.899999618530273 -59.86399841308592 L -10.513999938964844 -59.70500183105467 L -10.100000381469727 -59.65000152587889 L -8.192000389099121 -59.65000152587889 L -6.900000095367432 -59.65000152587889 L -6.486000061035156 -59.70500183105467 L -6.099999904632568 -59.86399841308592 L -5.769000053405762 -60.11899948120116 L -5.513999938964844 -60.45000076293944 L -5.355000019073486 -60.835998535156236 M -3 -33.90700149536132 L -3 -32.76800155639648 L -3 -30.443000793457024 L -1.5 -29.576999664306634 L 0 -28.711000442504876 L 3 -30.443000793457024 L 3 -32.76800155639648 L 3 -33.90700149536132 L 1.5 -34.772998809814446 L 0 -35.63899993896484 L -1.5 -34.772998809814446 L -3 -33.90700149536132 M 4.5 -27.844999313354485 L 3 -26.979000091552727 L 1.5 -26.11300086975097 L 1.5 -22.648000717163082 L 3 -21.78199958801269 L 4.5 -20.916000366210934 L 7.5 -22.648000717163082 L 7.5 -26.11300086975097 L 4.5 -27.844999313354485 M -3 -18.318000793457028 L -3 -16.38400077819824 L -3 -14.85400009155273 L -1.5 -13.987999916076657 L 0 -13.121999740600582 L 3 -14.85400009155273 L 3 -16.38400077819824 L 3 -18.318000793457028 L 1.5 -19.184000015258786 L 0 -20.049999237060543 L -1.5 -19.184000015258786 L -3 -18.318000793457028 M -3 -2.7070000171661373 L -3 1.1102230246251565e-16 L -3 0.7570000290870665 L -1.5 1.623000025749206 L 0 2.4890000820159908 L 2.989000082015991 0.7633506655693053 L 3 0.7570000290870665 L 3 1.1102230246251565e-16 L 3 -2.7070000171661373 L 1.5 -3.572999954223632 L 0 -4.439000129699706 L -1.4800808429718018 -3.584500074386596 L -3 -2.7070000171661373 M -3.010999917984009 16.350999832153317 L -2.953840732574463 16.38400077819824 L -1.5110000371932983 17.216999053955075 L -0.010999999940395355 18.083000183105465 L 4.301720773618482e-15 18.0766487121582 L 2.931840658187866 16.38400077819824 L 2.989000082015991 16.350999832153317 L 2.989000082015991 12.887000083923336 L 1.5 12.027350425720211 L 2.150860386809241e-15 11.161350250244139 L -0.010999999940395355 11.15499973297119 L -1.5003037452697754 12.014824867248532 L -3.010999917984009 12.887000083923336 L -3.010999917984009 16.350999832153317 M -4.5 10.282999992370604 L -3.0106964111328125 9.42317485809326 L -1.5 8.550999641418455 L -1.5 5.086999893188476 L -3 4.22100019454956 L -4.5 3.3550000190734854 L -7.5 5.086999893188476 L -7.5 6.831350803375242 L -7.5 8.550999641418455 L -4.5 10.282999992370604 M 4.488999843597412 18.948999404907223 L 2.989000082015991 19.81550025939941 L 1.4889999628067017 20.681999206542965 L 1.4889999628067017 24.14599990844726 L 2.989000082015991 25.011999130249016 L 4.488999843597412 25.878000259399407 L 7.488999843597412 24.14599990844726 L 7.488999843597412 20.681999206542965 L 4.488999843597412 18.948999404907223 M -3.010999917984009 31.962999343872063 L -1.6166582107543945 32.76800155639648 L -1.5110000371932983 32.82899856567382 L -0.010999999940395355 33.69499969482421 L 0 33.688648223876946 L 1.5946582555770874 32.76800155639648 L 2.989000082015991 31.962999343872063 L 2.989000082015991 28.497999191284173 L 1.4889999628067017 27.631999969482415 L 0 26.77235031127929 L -0.010999999940395355 26.766000747680657 L -1.4919469356536865 27.621000289916985 L -3.010999917984009 28.497999191284173 L -3.010999917984009 31.962999343872063 M 4.488999843597412 34.5610008239746 L 2.989000082015991 35.42699813842773 L 1.4889999628067017 36.29299926757812 L 1.4889999628067017 39.756999969482415 L 2.989000082015991 40.623001098632805 L 4.488999843597412 41.48899841308593 L 7.488999843597412 39.756999969482415 L 7.488999843597412 36.29299926757812 L 4.488999843597412 34.5610008239746 M -3.010999917984009 47.55099868774413 L -0.23790530860424042 49.15200042724608 L -0.010999999940395355 49.28300094604491 L 0 49.27664947509764 L 2.989000082015991 47.55099868774413 L 2.989000082015991 44.0870018005371 L 0 42.36135101318359 L -0.010999999940395355 42.35499954223632 L -1.5110000371932983 43.22100067138671 L -3.010999917984009 44.0870018005371 L -3.010999917984009 47.55099868774413 M -4.511000156402588 41.48899841308593 L -1.5110000371932983 39.756999969482415 L -1.5110000371932983 36.29299926757812 L -4.511000156402588 34.5610008239746 L -7.511000156402588 36.29299926757812 L -7.511000156402588 39.756999969482415 L -4.511000156402588 41.48899841308593 M -5.355000019073486 61.664001464843736 L -5.300000190734863 61.249999999999986 L -5.355000019073486 60.835998535156236 L -5.513999938964844 60.45000076293944 L -5.769000053405762 60.11899948120116 L -6.099999904632568 59.86399841308592 L -6.486000061035156 59.70500183105467 L -6.900000095367432 59.65000152587889 L -8.192000389099121 59.65000152587889 L -10.100000381469727 59.65000152587889 L -10.513999938964844 59.70500183105467 L -10.899999618530273 59.86399841308592 L -11.230999946594238 60.11899948120116 L -11.486000061035156 60.45000076293944 L -11.645000457763672 60.835998535156236 L -11.699999809265137 61.249999999999986 L -11.645000457763672 61.664001464843736 L -11.486000061035156 62.04999923706053 L -11.230999946594238 62.381000518798814 L -10.899999618530273 62.63600158691405 L -10.513999938964844 62.7949981689453 L -10.100000381469727 62.84999847412108 L -8.192000389099121 62.84999847412108 L -6.900000095367432 62.84999847412108 L -6.486000061035156 62.7949981689453 L -6.099999904632568 62.63600158691405 L -5.769000053405762 62.381000518798814 L -5.513999938964844 62.04999923706053 L -5.355000019073486 61.664001464843736 M 3 -49.51800155639647 L 0 -51.249999999999986 L -3 -49.51800155639647 L -3 -49.15200042724608 L -3 -46.05400085449218 L -1.5 -45.18799972534179 L 0 -44.3219985961914 L 3 -46.05400085449218 L 3 -49.51800155639647 M -1.5 -38.259998321533196 L -1.5 -41.72399902343749 L -3 -42.59000015258788 L -4.5 -43.456001281738274 L -7.5 -41.72399902343749 L -7.5 -38.259998321533196 L -4.5 -36.52799987792968 L -1.5 -38.259998321533196 M -1.5 -22.648000717163082 L -1.5 -26.11300086975097 L -4.5 -27.844999313354485 L -7.5 -26.11300086975097 L -7.5 -22.648000717163082 L -4.5 -20.916000366210934 L -1.5 -22.648000717163082 M 1.5 -7.059999942779539 L 3 -6.193999767303465 L 4.5 -5.32800006866455 L 7.5 -7.059999942779539 L 7.5 -10.524000167846678 L 4.5 -12.255999565124508 L 3 -11.390000343322752 L 1.5 -10.524000167846678 L 1.5 -7.059999942779539 M -1.5 -10.524000167846678 L -4.5 -12.255999565124508 L -7.5 -10.524000167846678 L -7.5 -7.059999942779539 L -4.5 -5.32800006866455 L -1.5 -7.059999942779539 L -1.5 -10.524000167846678 M 1.5 8.550999641418455 L 2.989000082015991 9.41064929962158 L 4.5 10.282999992370604 L 7.5 8.550999641418455 L 7.5 5.086999893188476 L 4.5 3.3550000190734854 L 2.989000082015991 4.227350711822509 L 1.5 5.086999893188476 L 1.5 8.550999641418455 M -7.511000156402588 24.14599990844726 L -4.511000156402588 25.878000259399407 L -3.03005313873291 25.02300071716308 L -1.5110000371932983 24.14599990844726 L -1.5110000371932983 20.681999206542965 L -4.511000156402588 18.948999404907223 L -7.511000156402588 20.681999206542965 L -7.511000156402588 24.14599990844726 z"
     fill="none"
     stroke="rgb(255,0,0)"
     stroke-width="0.001mm"
     id="path1"
     style="stroke-width:0.25;stroke-dasharray:none;stroke:#000000;stroke-opacity:1" />
</svg>
