<?xml version="1.0" encoding="UTF-8" standalone="no"?>
<svg
   width="97mm"
   height="130.49999999999997mm"
   viewBox="-48.5 -65.24999999999999 97 130.49999999999997"
   version="1.1"
   id="svg1"
   sodipodi:docname="Side panel - R.svg"
   inkscape:version="1.4.2 (f4327f4, 2025-05-13)"
   xmlns:inkscape="http://www.inkscape.org/namespaces/inkscape"
   xmlns:sodipodi="http://sodipodi.sourceforge.net/DTD/sodipodi-0.dtd"
   xmlns="http://www.w3.org/2000/svg"
   xmlns:svg="http://www.w3.org/2000/svg"
   xmlns:rdf="http://www.w3.org/1999/02/22-rdf-syntax-ns#"
   xmlns:cc="http://creativecommons.org/ns#"
   xmlns:dc="http://purl.org/dc/elements/1.1/">
  <defs
     id="defs1" />
  <sodipodi:namedview
     id="namedview1"
     pagecolor="#ffffff"
     bordercolor="#000000"
     borderopacity="0.25"
     inkscape:showpageshadow="2"
     inkscape:pageopacity="0.0"
     inkscape:pagecheckerboard="0"
     inkscape:deskcolor="#d1d1d1"
     inkscape:document-units="mm"
     inkscape:zoom="2.3660441"
     inkscape:cx="183.21721"
     inkscape:cy="246.61417"
     inkscape:window-width="3440"
     inkscape:window-height="1369"
     inkscape:window-x="-8"
     inkscape:window-y="-8"
     inkscape:window-maximized="1"
     inkscape:current-layer="svg1" />
  <title
     id="title1">svgOutput</title>
  <desc
     id="desc1">made with tinkercad</desc>
  <path
     d="M -47.5 -64.24999999999999 L -45.91349411010742 -64.24999999999999 L -44.55128479003906 -64.24999999999999 L -43.598548889160156 -64.24999999999999 L -42.801448822021484 -64.24999999999999 L -42.07978057861328 -64.24999999999999 L -41.2911376953125 -64.24999999999999 L -40.959999084472656 -64.24999999999999 L -37.198551177978516 -64.24999999999999 L -32.768001556396484 -64.24999999999999 L -31.25 -64.24999999999999 L -28.25 -64.24999999999999 L -22.25 -64.24999999999999 L -19.25 -64.24999999999999 L -16.384000778198242 -64.24999999999999 L -13.25 -64.24999999999999 L -10.25 -64.24999999999999 L -4.25 -64.24999999999999 L -1.25 -64.24999999999999 L 0 -64.24999999999999 L 4.75 -64.24999999999999 L 7.75 -64.24999999999999 L 13.75 -64.24999999999999 L 16.384000778198242 -64.24999999999999 L 16.75 -64.24999999999999 L 22.75 -64.24999999999999 L 25.75 -64.24999999999999 L 31.75 -64.24999999999999 L 32.768001556396484 -64.24999999999999 L 33.13650894165039 -64.24999999999999 L 34.498714447021484 -64.24999999999999 L 35.45145034790039 -64.24999999999999 L 36.24855041503906 -64.24999999999999 L 36.970218658447266 -64.24999999999999 L 37.75886535644531 -64.24999999999999 L 38.74503707885742 -64.24999999999999 L 40.56826400756836 -64.24999999999999 L 40.959999084472656 -64.24999999999999 L 41.85144805908203 -64.24999999999999 L 47.5 -64.24999999999999 L 47.5 -57.34400177001952 L 47.5 -49.15200042724608 L 47.5 -32.76800155639648 L 47.5 1.1102230246251565e-16 L 47.5 32.76800155639648 L 47.5 49.15200042724608 L 47.5 57.34400177001952 L 47.5 64.24999999999999 L 42.64855194091797 64.24999999999999 L 41.85144805908203 64.24999999999999 L 41.129783630371094 64.24999999999999 L 40.959999084472656 64.24999999999999 L 32.768001556396484 64.24999999999999 L 16.384000778198242 64.24999999999999 L 0 64.24999999999999 L -16.384000778198242 64.24999999999999 L -32.768001556396484 64.24999999999999 L -36.401451110839844 64.24999999999999 L -37.198551177978516 64.24999999999999 L -37.92021942138672 64.24999999999999 L -38.7088623046875 64.24999999999999 L -39.69503402709961 64.24999999999999 L -40.959999084472656 64.24999999999999 L -47.5 64.24999999999999 L -47.5 62.84999847412108 L -47.5 62.06618499755858 L -47.5 60.5352210998535 L -47.5 58.706996917724595 L -47.5 57.34400177001952 L -47.5 49.15200042724608 L -47.5 32.76800155639648 L -47.5 10.406666755676268 L -47.5 1.1102230246251565e-16 L -47.5 -5.204333305358886 L -47.5 -20.503665924072262 L -47.5 -20.793333053588864 L -47.5 -32.76800155639648 L -47.5 -36.40433502197265 L -47.5 -49.15200042724608 L -47.5 -57.34400177001952 L -47.5 -59.65000152587889 L -47.5 -60.43381500244139 L -47.5 -61.96477890014647 L -47.5 -63.793003082275376 L -47.5 -64.24999999999999 M 42.0359992980957 -62.04999923706053 L 41.78099822998047 -62.381000518798814 L 41.45000076293945 -62.63600158691405 L 41.06399917602539 -62.7949981689453 L 40.959999084472656 -62.80881500244139 L 40.650001525878906 -62.84999847412108 L 37.45000076293945 -62.84999847412108 L 37.0359992980957 -62.7949981689453 L 36.650001525878906 -62.63600158691405 L 36.319000244140625 -62.381000518798814 L 36.06399917602539 -62.04999923706053 L 35.904998779296875 -61.664001464843736 L 35.849998474121094 -61.249999999999986 L 35.904998779296875 -60.835998535156236 L 36.06399917602539 -60.45000076293944 L 36.319000244140625 -60.11899948120116 L 36.650001525878906 -59.86399841308592 L 37.0359992980957 -59.70500183105467 L 37.45000076293945 -59.65000152587889 L 40.650001525878906 -59.65000152587889 L 40.959999084472656 -59.69118499755858 L 41.06399917602539 -59.70500183105467 L 41.45000076293945 -59.86399841308592 L 41.78099822998047 -60.11899948120116 L 42.0359992980957 -60.45000076293944 L 42.19499969482422 -60.835998535156236 L 42.25 -61.249999999999986 L 42.19499969482422 -61.664001464843736 L 42.0359992980957 -62.04999923706053 M 33.25 -43.18799972534179 L 32.768001556396484 -42.90972518920898 L 31.75 -42.3219985961914 L 30.25 -41.456001281738274 L 30.25 -40.95999908447265 L 30.25 -37.99200057983398 L 31.75 -37.12599945068359 L 32.768001556396484 -36.53827285766601 L 33.25 -36.259998321533196 L 36.25 -37.99200057983398 L 36.25 -41.456001281738274 L 33.25 -43.18799972534179 M 16.75 -42.3219985961914 L 16.384000778198242 -42.5333023071289 L 15.25 -43.18799972534179 L 13.75 -42.3219985961914 L 12.25 -41.456001281738274 L 12.25 -40.95999908447265 L 12.25 -37.99200057983398 L 13.769919395446777 -37.11449813842773 L 15.25 -36.259998321533196 L 16.384000778198242 -36.91469573974609 L 16.75 -37.12599945068359 L 18.25 -37.99200057983398 L 18.25 -39.72399902343749 L 18.25 -40.95999908447265 L 18.25 -41.456001281738274 L 16.75 -42.3219985961914 M 22.75 -45.785999298095696 L 22.75 -49.15200042724608 L 22.75 -49.249999999999986 L 19.75 -50.9819984436035 L 16.75 -49.249999999999986 L 16.75 -49.15200042724608 L 16.75 -45.785999298095696 L 19.75 -44.05400085449218 L 21.25 -44.919998168945305 L 22.75 -45.785999298095696 M 28.75 -35.37099838256835 L 27.25 -34.50500106811523 L 25.75 -33.63899993896484 L 25.75 -32.76800155639648 L 25.75 -30.17499923706054 L 28.75 -28.443000793457024 L 30.25 -29.309000015258782 L 31.75 -30.17499923706054 L 31.75 -32.76800155639648 L 31.75 -33.63899993896484 L 28.75 -35.37099838256835 M 1.75 -50.9819984436035 L 0 -49.97166824340819 L -1.25 -49.249999999999986 L -1.25 -49.15200042724608 L -1.25 -45.785999298095696 L 0 -45.06433486938476 L 1.75 -44.05400085449218 L 3.25 -44.919998168945305 L 4.75 -45.785999298095696 L 4.75 -47.51800155639648 L 4.75 -49.15200042724608 L 4.75 -49.249999999999986 L 1.75 -50.9819984436035 M 0.25 -41.456001281738274 L 0 -41.60033416748046 L -2.75 -43.18799972534179 L -4.25 -42.3219985961914 L -5.75 -41.456001281738274 L -5.75 -40.95999908447265 L -5.75 -37.99200057983398 L -4.230080604553223 -37.11449813842773 L -2.75 -36.259998321533196 L -1.25 -37.12599945068359 L 0 -37.84766769409179 L 0.25 -37.99200057983398 L 0.25 -39.72399902343749 L 0.25 -40.95999908447265 L 0.25 -41.456001281738274 M 33.25 -27.576999664306634 L 32.768001556396484 -27.29872512817382 L 31.75 -26.711000442504876 L 30.25 -25.844999313354485 L 30.25 -24.57600021362304 L 30.25 -22.381000518798825 L 31.75 -21.514499664306637 L 32.768001556396484 -20.92643547058105 L 33.25 -20.648000717163082 L 36.25 -22.381000518798825 L 36.25 -25.844999313354485 L 33.25 -27.576999664306634 M 33.25 -11.987999916076658 L 32.768001556396484 -11.709725379943846 L 31.75 -11.121999740600584 L 30.25 -10.25599956512451 L 30.25 -8.19200038909912 L 30.25 -6.7919998168945295 L 31.75 -5.926000118255614 L 32.768001556396484 -5.338274478912353 L 33.25 -5.05999994277954 L 36.25 -6.7919998168945295 L 36.25 -10.25599956512451 L 33.25 -11.987999916076658 M 28.75 -19.78199958801269 L 27.25 -18.916000366210934 L 25.75 -18.049999237060543 L 25.75 -16.38400077819824 L 25.75 -14.58600044250488 L 28.75 -12.85400009155273 L 30.25 -13.720000267028805 L 31.75 -14.58600044250488 L 31.75 -16.38400077819824 L 31.75 -18.049999237060543 L 28.75 -19.78199958801269 M 4.75 -30.17499923706054 L 4.75 -31.906999588012688 L 4.75 -32.76800155639648 L 4.75 -33.63899993896484 L 3.2300808429718018 -34.51649856567382 L 1.75 -35.37099838256835 L 0.25 -34.50500106811523 L 0 -34.36066818237304 L -1.25 -33.63899993896484 L -1.25 -32.76800155639648 L -1.25 -30.17499923706054 L 0 -29.45333290100097 L 1.75 -28.443000793457024 L 3.25 -29.309000015258782 L 4.75 -30.17499923706054 M 0.25 -25.844999313354485 L 0 -25.989334106445305 L -2.75 -27.576999664306634 L -4.25 -26.711000442504876 L -5.75 -25.844999313354485 L -5.75 -24.57600021362304 L -5.75 -22.381000518798825 L -4.249567031860352 -21.51424980163574 L -2.75 -20.648000717163082 L -1.25 -21.514499664306637 L 4.299238543566553e-15 -22.236583709716793 L 0.25 -22.381000518798825 L 0.25 -24.114000320434563 L 0.25 -24.57600021362304 L 0.25 -25.844999313354485 M 8.192000389099121 -21.769828796386715 L 9.25 -22.381000518798825 L 9.25 -24.114000320434563 L 9.25 -24.57600021362304 L 9.25 -25.844999313354485 L 8.192000389099121 -26.455818176269524 L 6.25 -27.576999664306634 L 4.75 -26.711000442504876 L 3.25 -25.844999313354485 L 3.25 -24.57600021362304 L 3.25 -22.381000518798825 L 4.750432968139648 -21.51424980163574 L 6.25 -20.648000717163082 L 7.75 -21.514499664306637 L 8.192000389099121 -21.769828796386715 M 15.25 -20.648000717163082 L 16.384000778198242 -21.303073883056637 L 16.75 -21.514499664306637 L 18.25 -22.381000518798825 L 18.25 -24.114000320434563 L 18.25 -24.57600021362304 L 18.25 -25.844999313354485 L 16.75 -26.711000442504876 L 16.384000778198242 -26.922304153442376 L 15.25 -27.576999664306634 L 13.75 -26.711000442504876 L 12.25 -25.844999313354485 L 12.25 -24.57600021362304 L 12.25 -22.381000518798825 L 13.750432968139648 -21.51424980163574 L 15.25 -20.648000717163082 M 4.75 -18.049999237060543 L 3.2508656978607178 -18.915500640869137 L 1.75 -19.78199958801269 L 0.25 -18.916000366210934 L 0 -18.771667480468746 L -1.25 -18.049999237060543 L -1.25 -16.38400077819824 L -1.25 -14.58600044250488 L 0 -13.864333152770993 L 1.75 -12.85400009155273 L 3.25 -13.720000267028805 L 4.75 -14.58600044250488 L 4.75 -16.318000793457028 L 4.75 -16.38400077819824 L 4.75 -18.049999237060543 M 16.75 -11.121999740600584 L 16.384000778198242 -11.3333044052124 L 15.25 -11.987999916076658 L 13.75 -11.121999740600584 L 12.25 -10.25599956512451 L 12.25 -8.19200038909912 L 12.25 -6.7919998168945295 L 13.769919395446777 -5.91450023651123 L 15.25 -5.05999994277954 L 16.384000778198242 -5.714695930480956 L 16.75 -5.926000118255614 L 18.25 -6.7919998168945295 L 18.25 -8.19200038909912 L 18.25 -10.25599956512451 L 16.75 -11.121999740600584 M 16.75 -0.7300000190734861 L 16.75 1.1102230246251565e-16 L 16.75 1.024999976158142 L 19.75 2.7569999694824214 L 21.25 1.8910000324249263 L 22.75 1.024999976158142 L 22.75 1.1102230246251565e-16 L 22.75 -2.4389998912811275 L 21.23008155822754 -3.316499948501586 L 19.75 -4.171000003814696 L 18.25 -3.3050000667572013 L 16.75 -2.4389998912811275 L 16.75 -0.7300000190734861 M 0.25 -10.25599956512451 L 0 -10.400333404541014 L -2.75 -11.987999916076658 L -4.25 -11.121999740600584 L -5.75 -10.25599956512451 L -5.75 -8.19200038909912 L -5.75 -6.7919998168945295 L -4.230080604553223 -5.91450023651123 L -2.75 -5.05999994277954 L -1.25 -5.926000118255614 L 0 -6.647666454315184 L 0.25 -6.7919998168945295 L 0.25 -8.19200038909912 L 0.25 -10.25599956512451 M 12.230080604553223 -3.316499948501586 L 10.75 -4.171000003814696 L 9.25 -3.3050000667572013 L 8.192000389099121 -2.6941814422607417 L 7.75 -2.4389998912811275 L 7.75 1.1102230246251565e-16 L 7.75 1.024999976158142 L 8.192000389099121 1.2801812887191772 L 10.75 2.7569999694824214 L 12.25 1.8910000324249263 L 13.75 1.024999976158142 L 13.75 1.1102230246251565e-16 L 13.75 -2.4389998912811275 L 12.230080604553223 -3.316499948501586 M 3.2300808429718018 -3.316499948501586 L 1.75 -4.171000003814696 L 0.25 -3.3050000667572013 L 0 -3.1606667041778556 L -1.25 -2.4389998912811275 L -1.25 1.1102230246251565e-16 L -1.25 1.024999976158142 L 0 1.7466666698455806 L 1.75 2.7569999694824214 L 3.25 1.8910000324249263 L 4.75 1.024999976158142 L 4.75 1.1102230246251565e-16 L 4.75 -2.4389998912811275 L 3.2300808429718018 -3.316499948501586 M -11.75 -43.18799972534179 L -13.25 -42.3219985961914 L -14.75 -41.456001281738274 L -14.75 -40.95999908447265 L -14.75 -37.99200057983398 L -13.230080604553223 -37.11449813842773 L -11.75 -36.259998321533196 L -10.25 -37.12599945068359 L -8.75 -37.99200057983398 L -8.75 -40.95999908447265 L -8.75 -41.456001281738274 L -11.75 -43.18799972534179 M -14.769919395446777 -34.51649856567382 L -16.25 -35.37099838256835 L -16.384000778198242 -35.29363632202148 L -17.75 -34.50500106811523 L -19.25 -33.63899993896484 L -19.25 -32.76800155639648 L -19.25 -30.17499923706054 L -17.75 -29.309000015258782 L -16.384000778198242 -28.5203628540039 L -16.25 -28.443000793457024 L -14.75 -29.309000015258782 L -13.25 -30.17499923706054 L -13.25 -31.906999588012688 L -13.25 -32.76800155639648 L -13.25 -33.63899993896484 L -14.769919395446777 -34.51649856567382 M -20.75 -43.18799972534179 L -22.25 -42.3219985961914 L -23.75 -41.456001281738274 L -23.75 -40.95999908447265 L -23.75 -37.99200057983398 L -20.75 -36.259998321533196 L -19.25 -37.12599945068359 L -17.75 -37.99200057983398 L -17.75 -40.95999908447265 L -17.75 -41.456001281738274 L -20.75 -43.18799972534179 M -28.25 -42.3219985961914 L -29.75 -43.18799972534179 L -31.25 -42.3219985961914 L -32.75 -41.456001281738274 L -32.75 -40.95999908447265 L -32.75 -37.99200057983398 L -29.75 -36.259998321533196 L -28.25 -37.12599945068359 L -26.75 -37.99200057983398 L -26.75 -40.95999908447265 L -26.75 -41.456001281738274 L -28.25 -42.3219985961914 M -23.76991844177246 -34.51649856567382 L -24.576000213623047 -34.98187637329101 L -25.25 -35.37099838256835 L -26.75 -34.50500106811523 L -28.25 -33.63899993896484 L -28.25 -32.76800155639648 L -28.25 -30.17499923706054 L -26.75 -29.309000015258782 L -25.25 -28.443000793457024 L -24.576000213623047 -28.832122802734368 L -23.75 -29.309000015258782 L -22.25 -30.17499923706054 L -22.25 -31.906999588012688 L -22.25 -32.76800155639648 L -22.25 -33.63899993896484 L -23.76991844177246 -34.51649856567382 M -38.400001525878906 -59.65000152587889 L -37.986000061035156 -59.70500183105467 L -37.599998474121094 -59.86399841308592 L -37.26900100708008 -60.11899948120116 L -37.013999938964844 -60.45000076293944 L -36.85499954223633 -60.835998535156236 L -36.79999923706055 -61.249999999999986 L -36.85499954223633 -61.664001464843736 L -37.013999938964844 -62.04999923706053 L -37.26900100708008 -62.381000518798814 L -37.599998474121094 -62.63600158691405 L -37.986000061035156 -62.7949981689453 L -38.400001525878906 -62.84999847412108 L -40.959999084472656 -62.84999847412108 L -41.599998474121094 -62.84999847412108 L -42.013999938964844 -62.7949981689453 L -42.400001525878906 -62.63600158691405 L -42.73099899291992 -62.381000518798814 L -42.986000061035156 -62.04999923706053 L -43.14500045776367 -61.664001464843736 L -43.20000076293945 -61.249999999999986 L -43.14500045776367 -60.835998535156236 L -42.986000061035156 -60.45000076293944 L -42.73099899291992 -60.11899948120116 L -42.400001525878906 -59.86399841308592 L -42.013999938964844 -59.70500183105467 L -41.599998474121094 -59.65000152587889 L -40.959999084472656 -59.65000152587889 L -38.400001525878906 -59.65000152587889 M -8.192000389099121 -28.98684883117675 L -7.25 -28.443000793457024 L -5.75 -29.309000015258782 L -4.25 -30.17499923706054 L -4.25 -31.906999588012688 L -4.25 -32.76800155639648 L -4.25 -33.63899993896484 L -5.769919395446777 -34.51649856567382 L -7.25 -35.37099838256835 L -8.192000389099121 -34.82715225219726 L -8.75 -34.50500106811523 L -10.25 -33.63899993896484 L -10.25 -32.76800155639648 L -10.25 -30.17499923706054 L -8.75 -29.309000015258782 L -8.192000389099121 -28.98684883117675 M -8.75 -25.844999313354485 L -11.75 -27.576999664306634 L -13.25 -26.711000442504876 L -14.75 -25.844999313354485 L -14.75 -24.57600021362304 L -14.75 -22.381000518798825 L -13.249567031860352 -21.51424980163574 L -11.75 -20.648000717163082 L -10.25 -21.514499664306637 L -8.75 -22.381000518798825 L -8.75 -24.57600021362304 L -8.75 -25.844999313354485 M -14.749134063720703 -18.915500640869137 L -16.25 -19.78199958801269 L -16.384000778198242 -19.704637527465817 L -17.75 -18.916000366210934 L -19.25 -18.049999237060543 L -19.25 -16.38400077819824 L -19.25 -14.58600044250488 L -17.75 -13.720000267028805 L -16.384000778198242 -12.931363105773922 L -16.25 -12.85400009155273 L -14.75 -13.720000267028805 L -13.25 -14.58600044250488 L -13.25 -16.318000793457028 L -13.25 -16.38400077819824 L -13.25 -18.049999237060543 L -14.749134063720703 -18.915500640869137 M -17.75 -25.844999313354485 L -20.75 -27.576999664306634 L -22.25 -26.711000442504876 L -23.75 -25.844999313354485 L -23.75 -24.57600021362304 L -23.75 -22.381000518798825 L -20.75 -20.648000717163082 L -19.25 -21.514499664306637 L -17.75 -22.381000518798825 L -17.75 -24.57600021362304 L -17.75 -25.844999313354485 M -31.25 -30.17499923706054 L -31.25 -31.906999588012688 L -31.25 -32.76800155639648 L -31.25 -33.63899993896484 L -32.768001556396484 -34.51539230346679 L -34.25 -35.37099838256835 L -37.25 -33.63899993896484 L -37.25 -32.76800155639648 L -37.25 -30.17499923706054 L -34.25 -28.443000793457024 L -32.768001556396484 -29.29860877990722 L -32.75 -29.309000015258782 L -31.25 -30.17499923706054 M -32.7491340637207 -18.915500640869137 L -32.768001556396484 -18.926391601562496 L -34.25 -19.78199958801269 L -37.25 -18.049999237060543 L -37.25 -14.58600044250488 L -34.25 -12.85400009155273 L -32.768001556396484 -13.709608078002926 L -32.75 -13.720000267028805 L -31.25 -14.58600044250488 L -31.25 -16.318000793457028 L -31.25 -16.38400077819824 L -31.25 -18.049999237060543 L -32.7491340637207 -18.915500640869137 M -26.75 -22.381000518798825 L -26.75 -24.57600021362304 L -26.75 -25.844999313354485 L -28.25 -26.711000442504876 L -29.75 -27.576999664306634 L -31.25 -26.711000442504876 L -32.75 -25.844999313354485 L -32.75 -24.57600021362304 L -32.75 -22.381000518798825 L -29.75 -20.648000717163082 L -28.25 -21.514499664306637 L -26.75 -22.381000518798825 M -7.25 -12.85400009155273 L -5.75 -13.720000267028805 L -4.25 -14.58600044250488 L -4.25 -16.318000793457028 L -4.25 -16.38400077819824 L -4.25 -18.049999237060543 L -5.749134063720703 -18.915500640869137 L -7.25 -19.78199958801269 L -8.192000389099121 -19.238151550292965 L -8.75 -18.916000366210934 L -10.25 -18.049999237060543 L -10.25 -16.38400077819824 L -10.25 -14.58600044250488 L -8.75 -13.720000267028805 L -8.192000389099121 -13.397848129272457 L -7.25 -12.85400009155273 M -8.75 -10.25599956512451 L -11.75 -11.987999916076658 L -13.25 -11.121999740600584 L -14.75 -10.25599956512451 L -14.75 -8.19200038909912 L -14.75 -6.7919998168945295 L -13.230080604553223 -5.91450023651123 L -11.75 -5.05999994277954 L -10.25 -5.926000118255614 L -8.75 -6.7919998168945295 L -8.75 -8.19200038909912 L -8.75 -10.25599956512451 M -5.769919395446777 -3.316499948501586 L -7.25 -4.171000003814696 L -8.192000389099121 -3.62715196609497 L -8.75 -3.3050000667572013 L -10.25 -2.4389998912811275 L -10.25 1.1102230246251565e-16 L -10.25 1.024999976158142 L -8.75 1.8910000324249263 L -8.192000389099121 2.213151931762695 L -7.25 2.7569999694824214 L -5.75 1.8910000324249263 L -4.25 1.024999976158142 L -4.25 1.1102230246251565e-16 L -4.25 -2.4389998912811275 L -5.769919395446777 -3.316499948501586 M -14.769919395446777 -3.316499948501586 L -16.25 -4.171000003814696 L -16.384000778198242 -4.093637466430663 L -17.75 -3.3050000667572013 L -19.25 -2.4389998912811275 L -19.25 1.1102230246251565e-16 L -19.25 1.024999976158142 L -17.75 1.8910000324249263 L -16.384000778198242 2.6796374320983882 L -16.25 2.7569999694824214 L -14.75 1.8910000324249263 L -13.25 1.024999976158142 L -13.25 1.1102230246251565e-16 L -13.25 -2.4389998912811275 L -14.769919395446777 -3.316499948501586 M -17.75 -10.25599956512451 L -20.75 -11.987999916076658 L -22.25 -11.121999740600584 L -23.75 -10.25599956512451 L -23.75 -8.19200038909912 L -23.75 -6.7919998168945295 L -20.75 -5.05999994277954 L -19.25 -5.926000118255614 L -17.75 -6.7919998168945295 L -17.75 -8.19200038909912 L -17.75 -10.25599956512451 M -25.25 -12.85400009155273 L -24.576000213623047 -13.243123054504391 L -23.75 -13.720000267028805 L -22.25 -14.58600044250488 L -22.25 -16.318000793457028 L -22.25 -16.38400077819824 L -22.25 -18.049999237060543 L -23.749134063720703 -18.915500640869137 L -24.576000213623047 -19.392877578735348 L -25.25 -19.78199958801269 L -26.75 -18.916000366210934 L -28.25 -18.049999237060543 L -28.25 -16.38400077819824 L -28.25 -14.58600044250488 L -26.75 -13.720000267028805 L -25.25 -12.85400009155273 M -26.75 -10.25599956512451 L -28.25 -11.121999740600584 L -29.75 -11.987999916076658 L -31.25 -11.121999740600584 L -32.75 -10.25599956512451 L -32.75 -8.524000167846678 L -32.75 -8.19200038909912 L -32.75 -6.7919998168945295 L -29.75 -5.05999994277954 L -28.25 -5.926000118255614 L -26.75 -6.7919998168945295 L -26.75 -8.19200038909912 L -26.75 -10.25599956512451 M -23.76991844177246 -3.316499948501586 L -24.576000213623047 -3.7818772792816153 L -25.25 -4.171000003814696 L -26.75 -3.3050000667572013 L -28.25 -2.4389998912811275 L -28.25 1.1102230246251565e-16 L -28.25 1.024999976158142 L -26.75 1.8910000324249263 L -25.25 2.7569999694824214 L -24.576000213623047 2.3678772449493404 L -23.75 1.8910000324249263 L -22.25 1.024999976158142 L -22.25 1.1102230246251565e-16 L -22.25 -2.4389998912811275 L -23.76991844177246 -3.316499948501586 M 33.25 3.622999906539916 L 32.768001556396484 3.9012746810913077 L 31.75 4.488999843597411 L 30.25 5.355000019073485 L 30.25 8.19200038909912 L 30.25 8.819000244140623 L 32.768001556396484 10.272725105285643 L 33.25 10.550999641418455 L 36.25 8.819000244140623 L 36.25 5.355000019073485 L 33.25 3.622999906539916 M 0.25 5.355000019073485 L 0 5.21066665649414 L -2.75 3.622999906539916 L -4.25 4.488999843597411 L -5.75 5.355000019073485 L -5.75 8.19200038909912 L -5.75 8.819000244140623 L -2.75 10.550999641418455 L 0 8.96333312988281 L 0.25 8.819000244140623 L 0.25 8.19200038909912 L 0.25 5.355000019073485 M 42.0359992980957 60.45000076293944 L 41.78099822998047 60.11899948120116 L 41.45000076293945 59.86399841308592 L 41.06399917602539 59.70500183105467 L 40.959999084472656 59.69118499755858 L 40.650001525878906 59.65000152587889 L 37.45000076293945 59.65000152587889 L 37.0359992980957 59.70500183105467 L 36.650001525878906 59.86399841308592 L 36.319000244140625 60.11899948120116 L 36.06399917602539 60.45000076293944 L 35.904998779296875 60.835998535156236 L 35.849998474121094 61.249999999999986 L 35.904998779296875 61.664001464843736 L 36.06399917602539 62.04999923706053 L 36.319000244140625 62.381000518798814 L 36.650001525878906 62.63600158691405 L 37.0359992980957 62.7949981689453 L 37.45000076293945 62.84999847412108 L 40.650001525878906 62.84999847412108 L 40.959999084472656 62.80881500244139 L 41.06399917602539 62.7949981689453 L 41.45000076293945 62.63600158691405 L 41.78099822998047 62.381000518798814 L 42.0359992980957 62.04999923706053 L 42.19499969482422 61.664001464843736 L 42.25 61.249999999999986 L 42.19499969482422 60.835998535156236 L 42.0359992980957 60.45000076293944 M 16.6560001373291 38.53799819946288 L 16.384000778198242 37.87984085083007 L 16.381999969482422 37.87499999999999 L 15.944999694824219 37.305000305175774 L 15.375 36.86800003051757 L 14.711999893188477 36.594001770019524 L 14 36.49999999999999 L 13.288000106811523 36.594001770019524 L 12.625 36.86800003051757 L 12.055000305175781 37.305000305175774 L 11.618000030517578 37.87499999999999 L 11.343999862670898 38.53799819946288 L 11.25 39.24999999999999 L 11.343999862670898 39.9620018005371 L 11.618000030517578 40.62499999999999 L 11.874833106994629 40.95999908447265 L 12.055000305175781 41.19499969482421 L 12.625 41.631999969482415 L 13.288000106811523 41.90599822998046 L 14 41.99999999999999 L 14.711999893188477 41.90599822998046 L 15.375 41.631999969482415 L 15.944999694824219 41.19499969482421 L 16.125165939331055 40.95999908447265 L 16.381999969482422 40.62499999999999 L 16.384000778198242 40.620159149169915 L 16.6560001373291 39.9620018005371 L 16.75 39.24999999999999 L 16.6560001373291 38.53799819946288 M -8.75 5.355000019073485 L -11.75 3.622999906539916 L -13.25 4.488999843597411 L -14.75 5.355000019073485 L -14.75 8.19200038909912 L -14.75 8.819000244140623 L -11.75 10.550999641418455 L -8.75 8.819000244140623 L -8.75 8.19200038909912 L -8.75 5.355000019073485 M -17.75 5.355000019073485 L -20.75 3.622999906539916 L -22.25 4.488999843597411 L -23.75 5.355000019073485 L -23.75 8.19200038909912 L -23.75 8.819000244140623 L -20.75 10.550999641418455 L -17.75 8.819000244140623 L -17.75 8.19200038909912 L -17.75 5.355000019073485 M -9.619000434875488 40.15599822998046 L -9.5 39.24999999999999 L -9.619000434875488 38.344001770019524 L -9.968999862670898 37.49999999999999 L -10.524999618530273 36.7750015258789 L -11.25 36.219001770019524 L -12.093999862670898 35.868999481201165 L -13 35.74999999999999 L -13.906000137329102 35.868999481201165 L -14.75 36.219001770019524 L -15.475000381469727 36.7750015258789 L -16.0310001373291 37.49999999999999 L -16.381000518798828 38.344001770019524 L -16.384000778198242 38.36684036254882 L -16.5 39.24999999999999 L -16.384000778198242 40.133159637451165 L -16.381000518798828 40.15599822998046 L -16.047588348388672 40.95999908447265 L -16.0310001373291 40.99999999999999 L -15.475000381469727 41.72499847412109 L -14.75 42.28099822998046 L -13.906000137329102 42.63100051879882 L -13 42.74999999999999 L -12.093999862670898 42.63100051879882 L -11.25 42.28099822998046 L -10.524999618530273 41.72499847412109 L -9.968999862670898 40.99999999999999 L -9.952412605285645 40.95999908447265 L -9.619000434875488 40.15599822998046 M -37.013999938964844 60.45000076293944 L -37.26900100708008 60.11899948120116 L -37.599998474121094 59.86399841308592 L -37.986000061035156 59.70500183105467 L -38.400001525878906 59.65000152587889 L -40.959999084472656 59.65000152587889 L -41.599998474121094 59.65000152587889 L -42.013999938964844 59.70500183105467 L -42.400001525878906 59.86399841308592 L -42.73099899291992 60.11899948120116 L -42.986000061035156 60.45000076293944 L -43.14500045776367 60.835998535156236 L -43.20000076293945 61.249999999999986 L -43.14500045776367 61.664001464843736 L -42.986000061035156 62.04999923706053 L -42.73099899291992 62.381000518798814 L -42.400001525878906 62.63600158691405 L -42.013999938964844 62.7949981689453 L -41.599998474121094 62.84999847412108 L -40.959999084472656 62.84999847412108 L -38.400001525878906 62.84999847412108 L -37.986000061035156 62.7949981689453 L -37.599998474121094 62.63600158691405 L -37.26900100708008 62.381000518798814 L -37.013999938964844 62.04999923706053 L -36.85499954223633 61.664001464843736 L -36.79999923706055 61.249999999999986 L -36.85499954223633 60.835998535156236 L -37.013999938964844 60.45000076293944 M 28.75 -50.9819984436035 L 25.75 -49.249999999999986 L 25.75 -49.15200042724608 L 25.75 -45.785999298095696 L 28.75 -44.05400085449218 L 30.25 -44.919998168945305 L 31.75 -45.785999298095696 L 31.75 -49.15200042724608 L 31.75 -49.249999999999986 L 28.75 -50.9819984436035 M 24.576000213623047 -42.99979019165038 L 24.25 -43.18799972534179 L 22.75 -42.3219985961914 L 21.25 -41.456001281738274 L 21.25 -40.95999908447265 L 21.25 -37.99200057983398 L 22.76991844177246 -37.11449813842773 L 24.25 -36.259998321533196 L 24.576000213623047 -36.44821166992187 L 25.75 -37.12599945068359 L 27.25 -37.99200057983398 L 27.25 -39.72399902343749 L 27.25 -40.95999908447265 L 27.25 -41.456001281738274 L 25.75 -42.3219985961914 L 24.576000213623047 -42.99979019165038 M 16.75 -33.63899993896484 L 16.75 -32.76800155639648 L 16.75 -30.17499923706054 L 19.75 -28.443000793457024 L 21.25 -29.309000015258782 L 22.75 -30.17499923706054 L 22.75 -32.76800155639648 L 22.75 -33.63899993896484 L 21.23008155822754 -34.51649856567382 L 19.75 -35.37099838256835 L 18.25 -34.50500106811523 L 16.75 -33.63899993896484 M 10.75 -50.9819984436035 L 7.75 -49.249999999999986 L 7.75 -49.15200042724608 L 7.75 -45.785999298095696 L 8.192000389099121 -45.53081893920898 L 10.75 -44.05400085449218 L 12.25 -44.919998168945305 L 13.75 -45.785999298095696 L 13.75 -49.15200042724608 L 13.75 -49.249999999999986 L 10.75 -50.9819984436035 M 9.25 -41.456001281738274 L 8.192000389099121 -42.06681823730468 L 6.25 -43.18799972534179 L 4.75 -42.3219985961914 L 3.25 -41.456001281738274 L 3.25 -40.95999908447265 L 3.25 -37.99200057983398 L 4.769919395446777 -37.11449813842773 L 6.25 -36.259998321533196 L 7.75 -37.12599945068359 L 8.192000389099121 -37.381179809570305 L 9.25 -37.99200057983398 L 9.25 -39.72399902343749 L 9.25 -40.95999908447265 L 9.25 -41.456001281738274 M 8.192000389099121 -33.894180297851555 L 7.75 -33.63899993896484 L 7.75 -32.76800155639648 L 7.75 -30.17499923706054 L 8.192000389099121 -29.91981887817382 L 10.75 -28.443000793457024 L 12.25 -29.309000015258782 L 13.75 -30.17499923706054 L 13.75 -32.76800155639648 L 13.75 -33.63899993896484 L 12.230080604553223 -34.51649856567382 L 10.75 -35.37099838256835 L 9.25 -34.50500106811523 L 8.192000389099121 -33.894180297851555 M 24.576000213623047 -27.388790130615227 L 24.25 -27.576999664306634 L 22.75 -26.711000442504876 L 21.25 -25.844999313354485 L 21.25 -24.57600021362304 L 21.25 -22.381000518798825 L 22.75043296813965 -21.51424980163574 L 24.25 -20.648000717163082 L 24.576000213623047 -20.83631896972656 L 25.75 -21.514499664306637 L 27.25 -22.381000518798825 L 27.25 -24.114000320434563 L 27.25 -24.57600021362304 L 27.25 -25.844999313354485 L 25.75 -26.711000442504876 L 24.576000213623047 -27.388790130615227 M 16.75 -18.049999237060543 L 16.75 -16.38400077819824 L 16.75 -14.58600044250488 L 19.75 -12.85400009155273 L 21.25 -13.720000267028805 L 22.75 -14.58600044250488 L 22.75 -16.38400077819824 L 22.75 -18.049999237060543 L 21.250865936279297 -18.915500640869137 L 19.75 -19.78199958801269 L 18.25 -18.916000366210934 L 16.75 -18.049999237060543 M 9.25 -18.916000366210934 L 8.192000389099121 -18.305181503295895 L 7.75 -18.049999237060543 L 7.75 -16.38400077819824 L 7.75 -14.58600044250488 L 8.192000389099121 -14.330819129943844 L 10.75 -12.85400009155273 L 12.25 -13.720000267028805 L 13.75 -14.58600044250488 L 13.75 -16.38400077819824 L 13.75 -18.049999237060543 L 12.250865936279297 -18.915500640869137 L 10.75 -19.78199958801269 L 9.25 -18.916000366210934 M 24.576000213623047 -11.799789428710936 L 24.25 -11.987999916076658 L 22.75 -11.121999740600584 L 21.25 -10.25599956512451 L 21.25 -8.19200038909912 L 21.25 -6.7919998168945295 L 22.76991844177246 -5.91450023651123 L 24.25 -5.05999994277954 L 24.576000213623047 -5.248210430145263 L 25.75 -5.926000118255614 L 27.25 -6.7919998168945295 L 27.25 -8.19200038909912 L 27.25 -10.25599956512451 L 25.75 -11.121999740600584 L 24.576000213623047 -11.799789428710936 M 28.75 -4.171000003814696 L 27.25 -3.3050000667572013 L 25.75 -2.4389998912811275 L 25.75 1.1102230246251565e-16 L 25.75 1.024999976158142 L 28.75 2.7569999694824214 L 30.25 1.8910000324249263 L 31.75 1.024999976158142 L 31.75 1.1102230246251565e-16 L 31.75 -2.4389998912811275 L 28.75 -4.171000003814696 M 9.25 -10.25599956512451 L 8.192000389099121 -10.866818428039549 L 6.25 -11.987999916076658 L 4.75 -11.121999740600584 L 3.25 -10.25599956512451 L 3.25 -8.19200038909912 L 3.25 -6.7919998168945295 L 4.769919395446777 -5.91450023651123 L 6.25 -5.05999994277954 L 7.75 -5.926000118255614 L 8.192000389099121 -6.181181430816649 L 9.25 -6.7919998168945295 L 9.25 -8.19200038909912 L 9.25 -10.25599956512451 M -16.25 -50.9819984436035 L -16.384000778198242 -50.904636383056626 L -19.25 -49.249999999999986 L -19.25 -49.15200042724608 L -19.25 -45.785999298095696 L -17.75 -44.919998168945305 L -16.384000778198242 -44.131362915039055 L -16.25 -44.05400085449218 L -14.75 -44.919998168945305 L -13.25 -45.785999298095696 L -13.25 -47.51800155639648 L -13.25 -49.15200042724608 L -13.25 -49.249999999999986 L -16.25 -50.9819984436035 M -7.25 -50.9819984436035 L -10.25 -49.249999999999986 L -10.25 -49.15200042724608 L -10.25 -45.785999298095696 L -8.75 -44.919998168945305 L -8.192000389099121 -44.597846984863274 L -7.25 -44.05400085449218 L -5.75 -44.919998168945305 L -4.25 -45.785999298095696 L -4.25 -47.51800155639648 L -4.25 -49.15200042724608 L -4.25 -49.249999999999986 L -7.25 -50.9819984436035 M -32.768001556396484 -50.12639236450194 L -34.25 -50.9819984436035 L -37.25 -49.249999999999986 L -37.25 -49.15200042724608 L -37.25 -45.785999298095696 L -34.25 -44.05400085449218 L -32.768001556396484 -44.90960693359374 L -32.75 -44.919998168945305 L -31.25 -45.785999298095696 L -31.25 -47.51800155639648 L -31.25 -49.15200042724608 L -31.25 -49.249999999999986 L -32.768001556396484 -50.12639236450194 M -25.25 -50.9819984436035 L -28.25 -49.249999999999986 L -28.25 -49.15200042724608 L -28.25 -45.785999298095696 L -26.75 -44.919998168945305 L -25.25 -44.05400085449218 L -24.576000213623047 -44.443122863769524 L -23.75 -44.919998168945305 L -22.25 -45.785999298095696 L -22.25 -47.51800155639648 L -22.25 -49.15200042724608 L -22.25 -49.249999999999986 L -25.25 -50.9819984436035 M -32.768001556396484 -3.315392017364501 L -34.25 -4.171000003814696 L -37.25 -2.4389998912811275 L -37.25 1.1102230246251565e-16 L -37.25 1.024999976158142 L -34.25 2.7569999694824214 L -32.768001556396484 1.9013919830322261 L -32.75 1.8910000324249263 L -31.25 1.024999976158142 L -31.25 1.1102230246251565e-16 L -31.25 -2.4389998912811275 L -32.768001556396484 -3.315392017364501 M 24.576000213623047 3.811210632324218 L 24.25 3.622999906539916 L 22.75 4.488999843597411 L 21.25 5.355000019073485 L 21.25 8.19200038909912 L 21.25 8.819000244140623 L 24.25 10.550999641418455 L 27.25 8.819000244140623 L 27.25 8.19200038909912 L 27.25 5.355000019073485 L 25.75 4.488999843597411 L 24.576000213623047 3.811210632324218 M 16.384000778198242 4.277696132659911 L 15.25 3.622999906539916 L 13.75 4.488999843597411 L 12.25 5.355000019073485 L 12.25 8.19200038909912 L 12.25 8.819000244140623 L 15.25 10.550999641418455 L 16.384000778198242 9.896304130554197 L 18.25 8.819000244140623 L 18.25 8.19200038909912 L 18.25 5.355000019073485 L 16.75 4.488999843597411 L 16.384000778198242 4.277696132659911 M 9.25 5.355000019073485 L 8.192000389099121 4.744181156158446 L 6.25 3.622999906539916 L 4.75 4.488999843597411 L 3.25 5.355000019073485 L 3.25 8.19200038909912 L 3.25 8.819000244140623 L 6.25 10.550999641418455 L 9.25 8.819000244140623 L 9.25 8.19200038909912 L 9.25 5.355000019073485 M -29.75 3.622999906539916 L -31.25 4.488999843597411 L -32.75 5.355000019073485 L -32.75 7.086999893188475 L -32.75 8.19200038909912 L -32.75 8.819000244140623 L -29.75 10.550999641418455 L -26.75 8.819000244140623 L -26.75 8.19200038909912 L -26.75 5.355000019073485 L -28.25 4.488999843597411 L -29.75 3.622999906539916 z"
     fill="none"
     stroke="rgb(255,0,0)"
     stroke-width="0.001mm"
     id="path1"
     style="stroke-width:0.25;stroke-dasharray:none;stroke:#000000;stroke-opacity:1" />
  <metadata
     id="metadata1">
    <rdf:RDF>
      <cc:Work
         rdf:about="">
        <dc:title>svgOutput</dc:title>
      </cc:Work>
    </rdf:RDF>
  </metadata>
</svg>
